Coordinates
version=1
nRows=34
nColumns=34
inDegrees=no

Units are S.I. units (second, meters, Newtons, ...)
If the header above contains a line with 'inDegrees', this indicates whether rotational values are in degrees (yes) or radians (no).

endheader
time	pelvis_tilt	pelvis_list	pelvis_rotation	pelvis_tx	pelvis_ty	pelvis_tz	hip_flexion_r	hip_adduction_r	hip_rotation_r	knee_angle_r	ankle_angle_r	subtalar_angle_r	mtp_angle_r	hip_flexion_l	hip_adduction_l	hip_rotation_l	knee_angle_l	ankle_angle_l	subtalar_angle_l	mtp_angle_l	lumbar_extension	lumbar_bending	lumbar_rotation	arm_flex_r	arm_add_r	arm_rot_r	elbow_flex_r	pro_sup_r	arm_flex_l	arm_add_l	arm_rot_l	elbow_flex_l	pro_sup_l
1.18	0.114751	0.00898946	0.0113189	1.15756	1.14575	-0.212688	0.285044	-0.00938036	-0.148309	0.149911	0.0936926	0.0673312	-0.0486511	-0.28801	0.0675597	-0.138222	0.0784971	0.225074	0.091134	-0.108489	-0.372452	0.00642088	-0.048734	-0.157304	-0.130782	-0.224238	0.747522	2.14558	-0.077306	-0.199247	-0.12783	0.943534	2.13791
1.19	0.113985	0.00706258	0.0116606	1.16786	1.14455	-0.212418	0.282236	-0.00324025	-0.162138	0.127482	0.0947538	0.0852371	-0.0487539	-0.295247	0.0645144	-0.142544	0.0835494	0.230824	0.0958689	-0.108507	-0.37319	0.00994922	-0.0458635	-0.156281	-0.131104	-0.224513	0.748436	2.14527	-0.0764593	-0.198363	-0.12707	0.943235	2.13746
1.2	0.113185	0.00518358	0.0119943	1.17832	1.1434	-0.212133	0.280098	0.00264262	-0.175228	0.11065	0.0953365	0.0977843	-0.0488566	-0.302135	0.061441	-0.146399	0.0892716	0.235582	0.0996151	-0.108525	-0.373633	0.0135292	-0.0429994	-0.155457	-0.131438	-0.225072	0.749372	2.1448	-0.0759962	-0.197271	-0.126423	0.942412	2.13716
1.21	0.112283	0.00342819	0.012394	1.18894	1.14231	-0.21184	0.278702	0.00806725	-0.187006	0.0995223	0.0957654	0.105354	-0.0489593	-0.308592	0.0584215	-0.149529	0.0956772	0.239232	0.102095	-0.108543	-0.373678	0.0171077	-0.0402997	-0.154854	-0.131787	-0.225907	0.750345	2.14424	-0.0759894	-0.195998	-0.125897	0.941092	2.13701
1.22	0.111248	0.00183655	0.0129478	1.19973	1.14127	-0.211546	0.277998	0.0129064	-0.196886	0.0939044	0.096136	0.108475	-0.049062	-0.314572	0.0554859	-0.151755	0.102784	0.241696	0.103133	-0.108561	-0.373266	0.0206719	-0.0379232	-0.154487	-0.132163	-0.226978	0.751362	2.14365	-0.0764989	-0.194567	-0.125498	0.939293	2.137
1.23	0.110098	0.000408668	0.0137499	1.2107	1.14029	-0.211259	0.277809	0.0171222	-0.204347	0.093303	0.0962677	0.107732	-0.0491646	-0.320071	0.0526048	-0.153003	0.110623	0.242932	0.102669	-0.10858	-0.372398	0.0242519	-0.0360088	-0.154363	-0.132584	-0.228226	0.75242	2.14307	-0.0775631	-0.193001	-0.125233	0.937021	2.13714
1.24	0.1089	-0.000894275	0.0148894	1.22186	1.13936	-0.210981	0.277852	0.020768	-0.209016	0.096963	0.0957124	0.1037	-0.0492673	-0.325133	0.0496904	-0.153308	0.119248	0.242929	0.10076	-0.108598	-0.371135	0.0279191	-0.0346559	-0.154485	-0.133067	-0.229584	0.753501	2.14252	-0.0791923	-0.191318	-0.125112	0.934261	2.13743
1.25	0.107758	-0.00214098	0.0164394	1.2332	1.13848	-0.210717	0.277773	0.0239756	-0.210743	0.103947	0.0938233	0.0969018	-0.0493699	-0.329833	0.0466044	-0.152814	0.128745	0.241693	0.0975622	-0.108617	-0.369595	0.0317784	-0.0339073	-0.154857	-0.133634	-0.230996	0.754573	2.14201	-0.0813653	-0.189522	-0.125149	0.93098	2.13791
1.26	0.106837	-0.0034586	0.0184432	1.24475	1.13769	-0.210461	0.277209	0.0269157	-0.209648	0.113237	0.089876	0.0878066	-0.0494725	-0.334249	0.043181	-0.151754	0.13924	0.239227	0.093307	-0.108636	-0.367921	0.0359426	-0.0337442	-0.155487	-0.134299	-0.232422	0.755587	2.14154	-0.0840297	-0.187609	-0.125355	0.92712	2.1386
1.27	0.106288	-0.00495954	0.0209105	1.25649	1.137	-0.210213	0.275835	0.0297819	-0.206127	0.12387	0.0832245	0.0768383	-0.0495751	-0.338441	0.0392373	-0.150417	0.150918	0.235506	0.0882616	-0.108655	-0.366269	0.0405328	-0.0340801	-0.156382	-0.135077	-0.233848	0.756488	2.14109	-0.0871088	-0.185558	-0.125746	0.922612	2.13951
1.28	0.106232	-0.00674822	0.0238109	1.26842	1.13644	-0.20997	0.273429	0.0327484	-0.200803	0.135053	0.073464	0.0643916	-0.0496777	-0.342411	0.0345996	-0.149109	0.164021	0.230459	0.0826905	-0.108674	-0.364779	0.0456523	-0.0347726	-0.157549	-0.135978	-0.235281	0.757215	2.14066	-0.0905097	-0.183337	-0.126339	0.917381	2.14066
1.29	0.106732	-0.00890613	0.0270743	1.28052	1.136	-0.209726	0.269911	0.0359417	-0.194423	0.146261	0.0605679	0.0508379	-0.0497803	-0.34607	0.0291236	-0.148098	0.178863	0.22395	0.0768146	-0.108693	-0.363545	0.0513685	-0.0356405	-0.158987	-0.137007	-0.236746	0.757712	2.14024	-0.0941337	-0.18091	-0.127154	0.911359	2.14204
1.3	0.107776	-0.0114835	0.0305951	1.29277	1.1357	-0.209474	0.265372	0.0394271	-0.187735	0.157278	0.0449627	0.0365095	-0.0498828	-0.349208	0.0227084	-0.147575	0.19582	0.215774	0.0707764	-0.108712	-0.3626	0.0577001	-0.0364864	-0.16068	-0.138163	-0.238283	0.757932	2.13982	-0.0978851	-0.17824	-0.128218	0.904506	2.14364
1.31	0.109281	-0.0144954	0.0342442	1.30513	1.13553	-0.209206	0.26007	0.0432119	-0.181351	0.168186	0.0275217	0.021676	-0.0499854	-0.351478	0.0153057	-0.147612	0.215326	0.205666	0.0646186	-0.108731	-0.361897	0.0646105	-0.0371193	-0.16259	-0.139435	-0.239935	0.757832	2.1394	-0.101678	-0.175303	-0.129556	0.896821	2.14544
1.32	0.111091	-0.0179213	0.037885	1.31759	1.13548	-0.208907	0.254392	0.0472617	-0.175654	0.179291	0.00946769	0.00651831	-0.0500879	-0.352411	0.00692053	-0.148147	0.23785	0.193324	0.0582788	-0.108751	-0.36132	0.07201	-0.0373755	-0.164655	-0.140798	-0.24175	0.757376	2.13898	-0.105439	-0.172092	-0.131192	0.888357	2.14739
1.33	0.112993	-0.0217104	0.0413917	1.33009	1.13553	-0.208566	0.248798	0.0515229	-0.170753	0.191008	-0.00780041	-0.00888706	-0.0501904	-0.351444	-0.00239065	-0.148981	0.263859	0.178434	0.0516002	-0.10877	-0.3607	0.0797646	-0.0371378	-0.166781	-0.142214	-0.243767	0.756531	2.13855	-0.109114	-0.168624	-0.133143	0.879224	2.14947
1.34	0.114745	-0.0257872	0.0446655	1.3426	1.13567	-0.208169	0.24374	0.0559405	-0.166499	0.203731	-0.0229262	-0.0245617	-0.0502929	-0.347978	-0.0125246	-0.149797	0.293771	0.1607	0.0443547	-0.10879	-0.359842	0.0877085	-0.0363497	-0.168851	-0.143633	-0.24601	0.755262	2.13811	-0.112663	-0.164949	-0.135408	0.869598	2.15159
1.35	0.116109	-0.0300557	0.0476487	1.35507	1.13587	-0.207704	0.239595	0.0604677	-0.162574	0.21771	-0.0348095	-0.0405909	-0.0503954	-0.341441	-0.0233345	-0.150191	0.327898	0.13987	0.0362757	-0.108809	-0.358557	0.0956589	-0.0350244	-0.170733	-0.144997	-0.248479	0.753545	2.13767	-0.116065	-0.161144	-0.137965	0.859706	2.15368
1.36	0.116884	-0.0344	0.0503331	1.36746	1.13612	-0.207162	0.236595	0.0650634	-0.15861	0.23297	-0.0427666	-0.0570614	-0.0504979	-0.331369	-0.0346331	-0.149723	0.366385	0.115754	0.027098	-0.108829	-0.356695	0.103431	-0.0332466	-0.172288	-0.146252	-0.25114	0.751369	2.13722	-0.119313	-0.15731	-0.140765	0.849817	2.15564
1.37	0.116933	-0.0386891	0.0527629	1.37973	1.13641	-0.206544	0.234791	0.0696813	-0.154314	0.249285	-0.0466	-0.0739865	-0.0506004	-0.31747	-0.0461955	-0.147961	0.409162	0.088232	0.0166009	-0.108849	-0.35417	0.110847	-0.0311635	-0.17339	-0.147353	-0.253918	0.748755	2.13677	-0.122412	-0.153565	-0.143732	0.840211	2.15734
1.38	0.116205	-0.0427868	0.0550299	1.39185	1.13672	-0.205854	0.234038	0.074256	-0.149571	0.266204	-0.0465666	-0.091238	-0.0507029	-0.299677	-0.0577662	-0.144543	0.455912	0.0572772	0.00465027	-0.108868	-0.350982	0.117748	-0.0289672	-0.17394	-0.148278	-0.256699	0.745763	2.13632	-0.125371	-0.150035	-0.146763	0.831153	2.15872
1.39	0.114742	-0.0465629	0.0572591	1.40379	1.13706	-0.205104	0.234025	0.0786967	-0.144483	0.283123	-0.0432616	-0.10851	-0.0508054	-0.278166	-0.0690725	-0.139224	0.506066	0.0229839	-0.00876816	-0.108888	-0.347217	0.124001	-0.026866	-0.173879	-0.149027	-0.259346	0.742504	2.13587	-0.128197	-0.146839	-0.149733	0.822856	2.15974
1.4	0.11268	-0.0499058	0.0595873	1.41554	1.13744	-0.204308	0.234316	0.0828914	-0.139344	0.299378	-0.0374569	-0.125329	-0.0509078	-0.253342	-0.079846	-0.131914	0.558833	-0.0143824	-0.0235323	-0.108908	-0.343035	0.129508	-0.0250514	-0.173198	-0.149625	-0.26172	0.739128	2.13542	-0.130884	-0.14408	-0.152495	0.81546	2.16042
1.41	0.110228	-0.0527331	0.0621377	1.42709	1.13785	-0.203486	0.234416	0.0867228	-0.134563	0.314344	-0.0299423	-0.141113	-0.0510103	-0.2258	-0.0898471	-0.12269	0.613256	-0.0543223	-0.0393932	-0.108928	-0.338646	0.13421	-0.0236641	-0.171943	-0.150113	-0.263702	0.735816	2.13496	-0.13341	-0.141837	-0.154894	0.80902	2.16079
1.42	0.10763	-0.0550025	0.0649971	1.43844	1.13832	-0.202651	0.233839	0.0900906	-0.130561	0.327509	-0.0214039	-0.155255	-0.0511128	-0.196255	-0.0988875	-0.111797	0.668288	-0.0960388	-0.0560087	-0.108948	-0.33428	0.138092	-0.0227689	-0.170203	-0.150542	-0.265227	0.732757	2.13451	-0.135738	-0.140154	-0.156771	0.803505	2.16094
1.43	0.105133	-0.0567143	0.0681993	1.44961	1.13887	-0.20182	0.232159	0.0929325	-0.127676	0.338523	-0.0123618	-0.167216	-0.0512153	-0.165472	-0.106846	-0.0996113	0.722873	-0.1384	-0.0729993	-0.108968	-0.330159	0.141177	-0.0223417	-0.168107	-0.150964	-0.266286	0.730126	2.13406	-0.137821	-0.139042	-0.157988	0.798817	2.16094
1.44	0.10295	-0.0579079	0.0717191	1.46061	1.13951	-0.201004	0.229045	0.0952375	-0.12609	0.3472	-0.0031645	-0.176602	-0.0513178	-0.134202	-0.113672	-0.0866017	0.776022	-0.179953	-0.0900156	-0.108989	-0.326471	0.143522	-0.0222756	-0.165804	-0.151418	-0.266936	0.728066	2.13361	-0.139613	-0.138473	-0.158441	0.794818	2.16087
1.45	0.101232	-0.0586491	0.0754784	1.47144	1.14027	-0.20021	0.224276	0.0970466	-0.125812	0.353505	0.0059767	-0.183208	-0.0514203	-0.103115	-0.119382	-0.0732707	0.826872	-0.219013	-0.106803	-0.109009	-0.323354	0.145204	-0.022402	-0.163445	-0.151936	-0.267275	0.726676	2.13318	-0.141079	-0.138388	-0.158088	0.791365	2.16077
1.46	0.100056	-0.0590063	0.0793562	1.48214	1.14114	-0.199438	0.217741	0.0984421	-0.126692	0.357504	0.0149373	-0.187028	-0.0515228	-0.0727623	-0.124042	-0.0601014	0.874721	-0.25383	-0.123245	-0.109029	-0.320888	0.146307	-0.022526	-0.161173	-0.152533	-0.267424	0.726008	2.13275	-0.142212	-0.138703	-0.156962	0.78834	2.16068
1.47	0.0994505	-0.0590403	0.0832093	1.49272	1.14213	-0.198686	0.209428	0.0995255	-0.128469	0.359324	0.0236342	-0.188224	-0.0516252	-0.0435451	-0.127748	-0.0475149	0.919036	-0.282812	-0.139381	-0.109049	-0.319087	0.146909	-0.0224632	-0.159098	-0.153215	-0.267494	0.726075	2.13234	-0.143035	-0.139313	-0.155177	0.785676	2.16062
1.48	0.0993968	-0.0588232	0.0868998	1.50318	1.14324	-0.197948	0.199407	0.100387	-0.130832	0.359116	0.0319969	-0.187084	-0.0517277	-0.0157091	-0.130592	-0.0358447	0.959445	-0.304762	-0.155382	-0.109069	-0.317907	0.147053	-0.0220725	-0.157301	-0.153977	-0.267564	0.726854	2.13194	-0.143609	-0.14011	-0.152922	0.783366	2.1606
1.49	0.0998229	-0.0583729	0.0903106	1.51354	1.14446	-0.197216	0.187809	0.1011	-0.133477	0.357029	0.0399573	-0.183961	-0.0518302	0.0106402	-0.132662	-0.0253207	0.995713	-0.319066	-0.171509	-0.109089	-0.317263	0.146764	-0.0212748	-0.155823	-0.154812	-0.267668	0.728306	2.13155	-0.144023	-0.140988	-0.15044	0.781464	2.16061
1.5	0.100621	-0.0576872	0.0933591	1.52382	1.1458	-0.196489	0.174813	0.101704	-0.136152	0.353207	0.047454	-0.179217	-0.0519327	0.0355164	-0.134019	-0.0160757	1.02771	-0.32578	-0.188048	-0.10911	-0.317041	0.14604	-0.0200598	-0.154673	-0.15571	-0.267788	0.730381	2.13115	-0.144391	-0.141853	-0.147995	0.780068	2.16065
1.51	0.101662	-0.0567457	0.096	1.53401	1.14725	-0.195761	0.160623	0.102198	-0.138679	0.34779	0.0544409	-0.173186	-0.0520351	0.0590185	-0.134699	-0.0081602	1.05538	-0.325583	-0.205263	-0.10913	-0.317114	0.144852	-0.0184768	-0.153837	-0.156663	-0.267867	0.733033	2.13073	-0.144829	-0.142634	-0.145835	0.779296	2.16071
